<svg width="244" height="244" viewBox="0 0 244 244" fill="none" xmlns="http://www.w3.org/2000/svg">
<g filter="url(#filter0_d_690_2203)">
<rect width="240" height="240" fill="#F2F2F2"/>
</g>
<g clip-path="url(#clip0_690_2203)">
<path fill-rule="evenodd" clip-rule="evenodd" d="M103.55 48.3275C101.005 48.3275 98.9389 50.3964 98.9389 52.9398V73.8056C98.9389 76.3492 101.006 78.418 103.549 78.418H142.846C145.387 78.418 147.456 76.3491 147.456 73.8067V52.9398C147.456 50.3963 145.386 48.3286 142.845 48.3286H103.548L103.55 48.3275ZM142.847 81.3786H103.55C99.3747 81.3786 95.9785 77.9811 95.9785 73.8059V52.939C95.9785 48.7636 99.3739 45.3663 103.549 45.3663L142.846 45.3652C147.021 45.3652 150.417 48.7628 150.417 52.9379V73.8037C150.417 77.9792 147.02 81.3764 142.845 81.3764L142.847 81.3786Z" fill="#777777"/>
<path fill-rule="evenodd" clip-rule="evenodd" d="M134.166 53.964C132.381 53.964 130.925 55.4179 130.925 57.2049C130.925 58.9919 132.381 60.4458 134.166 60.4458C135.955 60.4458 137.406 58.9919 137.406 57.2049C137.406 55.4167 135.954 53.964 134.166 53.964ZM134.166 63.4064C130.749 63.4064 127.963 60.6249 127.963 57.2052C127.963 53.7854 130.748 51.0039 134.164 51.0039C137.584 51.0028 140.366 53.7854 140.366 57.2052C140.366 60.6241 137.584 63.4064 134.164 63.4064H134.166Z" fill="#777777"/>
<path fill-rule="evenodd" clip-rule="evenodd" d="M112.231 53.964C110.446 53.964 108.99 55.4179 108.99 57.2049C108.99 58.9919 110.446 60.4458 112.231 60.4458C114.02 60.4458 115.472 58.9919 115.472 57.2049C115.472 55.4167 114.019 53.964 112.231 53.964ZM112.231 63.4064C108.811 63.4064 106.03 60.6249 106.03 57.2052C106.03 53.7854 108.811 51.0039 112.231 51.0039C115.651 51.0028 118.432 53.7854 118.432 57.2052C118.432 60.6241 115.651 63.4064 112.231 63.4064Z" fill="#777777"/>
<path fill-rule="evenodd" clip-rule="evenodd" d="M112.343 71.7167H134.057V69.1935H112.343V71.7167ZM134.319 74.677H112.081C110.591 74.677 109.382 73.4663 109.382 71.9792V68.9322C109.382 67.4451 110.59 66.2344 112.08 66.2344H134.318C135.804 66.2344 137.016 67.4451 137.016 68.9333V71.9792C137.016 73.4663 135.804 74.6781 134.317 74.6781L134.319 74.677Z" fill="#777777"/>
<path fill-rule="evenodd" clip-rule="evenodd" d="M153.966 73.9924H148.939C148.122 73.9924 147.458 73.3303 147.458 72.5128C147.458 71.6953 148.122 71.0321 148.938 71.0321H153.965C154.32 71.0321 154.615 70.7332 154.615 70.3796L154.616 56.3676C154.616 56.014 154.32 55.7162 153.965 55.7162H148.938C148.12 55.7162 147.457 55.054 147.457 54.2365C147.457 53.419 148.12 52.7559 148.937 52.7559H153.964C155.956 52.7559 157.575 54.3769 157.575 56.3687V70.3808C157.575 72.3725 155.956 73.9936 153.964 73.9936L153.966 73.9924Z" fill="#777777"/>
<path fill-rule="evenodd" clip-rule="evenodd" d="M97.4611 73.9914H92.4351C90.4434 73.9914 88.8201 72.3714 88.8201 70.3797V56.3676C88.8201 54.3759 90.4422 52.7559 92.434 52.7559H97.4611C98.2786 52.7559 98.9407 53.4191 98.9407 54.2365C98.9407 55.0541 98.2775 55.7162 97.46 55.7162H92.4341C92.0794 55.7162 91.7794 56.0151 91.7794 56.3687V70.3807C91.7794 70.7343 92.0783 71.0332 92.433 71.0332H97.46C98.2775 71.0332 98.9397 71.6964 98.9397 72.5139C98.9397 73.3313 98.2764 73.9946 97.46 73.9935L97.4611 73.9914Z" fill="#777777"/>
<path fill-rule="evenodd" clip-rule="evenodd" d="M109.519 90.3879C108.701 90.3879 108.038 89.7247 108.038 88.9072L108.039 79.8987C108.039 79.0801 108.701 78.418 109.519 78.418C110.336 78.418 110.999 79.0812 110.999 79.8987V88.9061C110.999 89.7236 110.336 90.3868 109.52 90.3868L109.519 90.3879ZM136.882 90.3879C136.065 90.3879 135.401 89.7247 135.401 88.9072V79.8987C135.401 79.0801 136.064 78.418 136.881 78.418C137.698 78.418 138.361 79.0812 138.361 79.8987V88.9061C138.361 89.7236 137.698 90.3868 136.881 90.3868L136.882 90.3879Z" fill="#777777"/>
<path fill-rule="evenodd" clip-rule="evenodd" d="M152.652 136.216C151.836 136.216 151.172 135.552 151.172 134.735V93.8531C151.172 91.9428 149.617 90.3881 147.708 90.3881H98.6904C96.779 90.3881 95.2243 91.9427 95.2243 93.8531V134.735C95.2243 135.553 94.5611 136.216 93.7436 136.216C92.9272 136.216 92.2629 135.552 92.2629 134.735V93.8531C92.2629 90.3099 95.1462 87.4277 98.6894 87.4277H147.707C151.25 87.4277 154.13 90.3099 154.13 93.8531V134.735C154.13 135.553 153.47 136.216 152.649 136.216H152.652Z" fill="#777777"/>
<path fill-rule="evenodd" clip-rule="evenodd" d="M163.692 113.677C162.875 113.677 162.211 113.014 162.211 112.196C162.211 111.434 162.785 110.808 163.525 110.725L163.526 102.877C163.526 100.287 161.42 98.181 158.829 98.181H152.652C151.836 98.181 151.171 97.5189 151.171 96.7014C151.171 95.8839 151.835 95.2207 152.652 95.2207H158.83C163.051 95.2207 166.486 98.6556 166.486 102.878V110.883C166.486 112.424 165.234 113.678 163.693 113.678L163.692 113.677Z" fill="#777777"/>
<path fill-rule="evenodd" clip-rule="evenodd" d="M163.692 136.216C162.875 136.216 162.211 135.553 162.211 134.736V113.678H152.651C151.835 113.678 151.171 113.016 151.171 112.198C151.171 111.381 151.834 110.719 152.651 110.719H163.692C164.509 110.719 165.172 111.382 165.172 112.199V134.737C165.172 135.554 164.509 136.217 163.692 136.217L163.692 136.216Z" fill="#777777"/>
<path fill-rule="evenodd" clip-rule="evenodd" d="M82.7072 113.678C81.1655 113.678 79.9128 112.425 79.9128 110.884V102.879C79.9128 98.6564 83.3447 95.2227 87.567 95.2227H93.7447C94.5611 95.2227 95.2243 95.8859 95.2243 96.7033C95.2243 97.5208 94.5611 98.184 93.7436 98.184H87.5667C84.9793 98.184 82.8729 100.292 82.8729 102.88V110.727C83.6101 110.81 84.1865 111.437 84.1865 112.198C84.1865 113.016 83.5233 113.679 82.7069 113.679L82.7072 113.678Z" fill="#777777"/>
<path fill-rule="evenodd" clip-rule="evenodd" d="M82.7073 136.216C81.8897 136.216 81.2266 135.552 81.2266 134.735V112.196C81.2266 111.379 81.8887 110.717 82.7062 110.717H93.7439C94.5603 110.717 95.2235 111.38 95.2235 112.197C95.2235 113.015 94.5603 113.678 93.7428 113.678H84.1857V134.736C84.1857 135.553 83.5225 136.216 82.7061 136.216L82.7073 136.216Z" fill="#777777"/>
<path fill-rule="evenodd" clip-rule="evenodd" d="M137.183 48.3283C136.365 48.3283 135.702 47.6662 135.702 46.8487V43.1651C135.702 41.9501 134.714 40.9622 133.499 40.9622H112.896C111.681 40.9622 110.691 41.9501 110.691 43.1651V46.8487C110.691 47.6662 110.031 48.3294 109.21 48.3294C108.393 48.3294 107.729 47.6662 107.729 46.8487L107.731 43.1651C107.731 40.3172 110.049 38.002 112.896 38.002H133.499C136.346 38.002 138.661 40.3184 138.661 43.1662V46.8498C138.661 47.6673 137.998 48.3305 137.182 48.3294L137.183 48.3283Z" fill="#777777"/>
<path fill-rule="evenodd" clip-rule="evenodd" d="M75.1507 136.246C75.0251 136.246 74.9132 136.308 74.9132 136.379V155.226C74.9132 155.297 75.0251 155.359 75.1497 155.359H171.249C171.374 155.359 171.483 155.297 171.483 155.227V136.379C171.483 136.308 171.373 136.246 171.248 136.246H75.1486L75.1507 136.246ZM171.251 157.001H75.1507C73.4123 157.001 72 156.205 72 155.225V136.378C72 135.398 73.4123 134.602 75.1496 134.602H171.249C172.987 134.602 174.399 135.399 174.399 136.378V155.225C174.399 156.205 172.986 157.002 171.248 157.001H171.251Z" fill="#777777"/>
<path fill-rule="evenodd" clip-rule="evenodd" d="M165.351 143.44H160.978C160.162 143.44 159.497 142.777 159.497 141.959C159.497 141.142 160.161 140.479 160.978 140.479H165.351C166.168 140.479 166.831 141.142 166.831 141.959C166.831 142.777 166.168 143.44 165.351 143.44Z" fill="#777777"/>
<path fill-rule="evenodd" clip-rule="evenodd" d="M149.366 143.44H144.993C144.176 143.44 143.512 142.777 143.512 141.959C143.512 141.142 144.175 140.479 144.993 140.479H149.366C150.183 140.479 150.846 141.142 150.846 141.959C150.846 142.777 150.183 143.44 149.366 143.44Z" fill="#777777"/>
<path fill-rule="evenodd" clip-rule="evenodd" d="M133.378 143.44H129.005C128.188 143.44 127.524 142.777 127.524 141.959C127.524 141.142 128.187 140.479 129.005 140.479H133.378C134.198 140.479 134.858 141.142 134.858 141.959C134.858 142.777 134.198 143.44 133.378 143.44Z" fill="#777777"/>
<path fill-rule="evenodd" clip-rule="evenodd" d="M117.396 143.44H113.019C112.203 143.44 111.538 142.777 111.538 141.959C111.538 141.142 112.202 140.479 113.019 140.479H117.396C118.213 140.479 118.875 141.142 118.875 141.959C118.875 142.777 118.212 143.44 117.396 143.44Z" fill="#777777"/>
<path fill-rule="evenodd" clip-rule="evenodd" d="M101.408 143.44H97.0312C96.2148 143.44 95.5505 142.777 95.5505 141.959C95.5505 141.142 96.2138 140.479 97.0312 140.479H101.408C102.225 140.479 102.888 141.142 102.888 141.959C102.888 142.777 102.224 143.44 101.408 143.44Z" fill="#777777"/>
<path fill-rule="evenodd" clip-rule="evenodd" d="M85.4199 143.44H81.0476C80.2269 143.44 79.5669 142.777 79.5669 141.959C79.568 141.142 80.2269 140.479 81.0476 140.479H85.421C86.2385 140.479 86.9007 141.142 86.9007 141.959C86.9007 142.777 86.2374 143.44 85.421 143.44H85.4199Z" fill="#777777"/>
<path fill-rule="evenodd" clip-rule="evenodd" d="M165.351 151.085H160.978C160.162 151.085 159.497 150.423 159.497 149.606C159.497 148.788 160.161 148.125 160.978 148.125H165.351C166.168 148.125 166.831 148.788 166.831 149.606C166.831 150.423 166.168 151.086 165.351 151.085Z" fill="#777777"/>
<path fill-rule="evenodd" clip-rule="evenodd" d="M149.366 151.085H144.993C144.176 151.085 143.512 150.423 143.512 149.606C143.512 148.788 144.175 148.125 144.993 148.125H149.366C150.183 148.125 150.846 148.788 150.846 149.606C150.846 150.423 150.183 151.086 149.366 151.085Z" fill="#777777"/>
<path fill-rule="evenodd" clip-rule="evenodd" d="M133.378 151.085H129.005C128.188 151.085 127.524 150.423 127.524 149.606C127.524 148.788 128.187 148.125 129.005 148.125H133.378C134.198 148.125 134.858 148.788 134.858 149.606C134.858 150.423 134.198 151.086 133.378 151.085Z" fill="#777777"/>
<path fill-rule="evenodd" clip-rule="evenodd" d="M117.396 151.085H113.019C112.203 151.085 111.538 150.423 111.538 149.606C111.538 148.788 112.202 148.125 113.019 148.125H117.396C118.213 148.125 118.875 148.788 118.875 149.606C118.875 150.423 118.212 151.086 117.396 151.085Z" fill="#777777"/>
<path fill-rule="evenodd" clip-rule="evenodd" d="M101.408 151.085H97.0312C96.2148 151.085 95.5505 150.423 95.5505 149.606C95.5505 148.788 96.2138 148.125 97.0312 148.125H101.408C102.225 148.125 102.888 148.788 102.888 149.606C102.888 150.423 102.224 151.086 101.408 151.085Z" fill="#777777"/>
<path fill-rule="evenodd" clip-rule="evenodd" d="M85.4199 151.085H81.0476C80.2269 151.085 79.5669 150.423 79.5669 149.606C79.568 148.788 80.2269 148.125 81.0476 148.125H85.421C86.2385 148.125 86.9007 148.788 86.9007 149.606C86.9007 150.423 86.2374 151.086 85.421 151.085H85.4199Z" fill="#777777"/>
<path fill-rule="evenodd" clip-rule="evenodd" d="M115.155 119.898C115.498 119.898 115.837 120.017 116.111 120.247C117.107 121.086 118.229 121.736 119.447 122.178C120.033 122.39 120.422 122.947 120.422 123.57L120.423 126.647C120.423 127.035 120.752 127.363 121.141 127.363H125.258C125.647 127.363 125.973 127.035 125.973 126.647L125.975 123.569C125.975 122.945 126.366 122.39 126.952 122.178C128.17 121.735 129.293 121.086 130.288 120.247C130.766 119.845 131.442 119.785 131.981 120.097L134.652 121.638C134.988 121.832 135.435 121.712 135.629 121.375L137.689 117.809C137.883 117.472 137.763 117.024 137.427 116.83L134.76 115.291C134.22 114.979 133.933 114.365 134.041 113.752C134.156 113.117 134.211 112.467 134.211 111.821C134.211 111.175 134.155 110.525 134.041 109.891C133.934 109.278 134.22 108.663 134.76 108.352L137.428 106.813C137.648 106.685 137.73 106.486 137.758 106.378C137.786 106.269 137.817 106.056 137.69 105.834L135.631 102.268C135.437 101.931 134.989 101.812 134.653 102.006L131.983 103.547C131.444 103.859 130.768 103.799 130.29 103.398C129.295 102.558 128.172 101.908 126.954 101.467C126.368 101.254 125.977 100.699 125.977 100.075L125.978 96.9971C125.978 96.6093 125.65 96.2814 125.261 96.2814H121.145C120.756 96.2814 120.426 96.6093 120.426 96.9971L120.427 100.075C120.427 100.699 120.038 101.255 119.452 101.467C118.233 101.908 117.111 102.558 116.115 103.398C115.637 103.799 114.959 103.86 114.419 103.548L111.751 102.006C111.416 101.812 110.968 101.932 110.773 102.269L108.714 105.834C108.519 106.171 108.639 106.619 108.975 106.812L111.643 108.352C112.183 108.663 112.466 109.279 112.358 109.892C112.247 110.525 112.192 111.175 112.192 111.822C112.192 112.469 112.247 113.118 112.358 113.753C112.466 114.366 112.179 114.981 111.642 115.292L108.974 116.831C108.639 117.025 108.518 117.474 108.712 117.81L110.772 121.375C110.966 121.712 111.414 121.832 111.749 121.638L114.417 120.097C114.649 119.964 114.904 119.899 115.156 119.898L115.155 119.898ZM125.258 130.324H121.141C119.112 130.324 117.462 128.675 117.462 126.648V124.565C116.608 124.18 115.796 123.71 115.032 123.159L113.229 124.201C111.471 125.214 109.22 124.611 108.205 122.856L106.148 119.289C105.133 117.533 105.738 115.281 107.493 114.267L109.297 113.224C109.251 112.758 109.228 112.289 109.228 111.821C109.228 111.353 109.25 110.883 109.296 110.417L107.493 109.375C105.738 108.362 105.133 106.109 106.148 104.353L108.205 100.786C109.22 99.031 111.473 98.4268 113.228 99.4403L115.032 100.482C115.797 99.9311 116.607 99.4618 117.462 99.0761V96.9943C117.462 94.9672 119.112 93.3184 121.141 93.3184H125.258C127.284 93.3184 128.934 94.9683 128.934 96.9954V99.0772C129.788 99.4618 130.602 99.9332 131.364 100.484L133.171 99.4414C134.926 98.4279 137.179 99.0321 138.191 100.788L140.251 104.355C140.742 105.202 140.87 106.195 140.615 107.145C140.362 108.094 139.755 108.888 138.906 109.378L137.1 110.419C137.146 110.885 137.171 111.355 137.171 111.823C137.171 112.29 137.146 112.759 137.1 113.226L138.907 114.269C140.661 115.282 141.266 117.536 140.251 119.292L138.191 122.857C137.179 124.612 134.925 125.217 133.17 124.204L131.362 123.16C130.602 123.711 129.79 124.182 128.932 124.567V126.649C128.932 128.676 127.283 130.326 125.257 130.325L125.258 130.324Z" fill="#777777"/>
<path fill-rule="evenodd" clip-rule="evenodd" d="M123.2 106.808C120.436 106.808 118.188 109.058 118.188 111.822C118.188 114.586 120.435 116.835 123.199 116.835C125.965 116.835 128.213 114.586 128.213 111.822C128.213 109.057 125.965 106.809 123.199 106.808H123.2ZM123.2 119.794C118.805 119.794 115.227 116.218 115.227 111.821C115.227 107.424 118.805 103.848 123.199 103.848C127.597 103.847 131.173 107.425 131.173 111.821C131.173 116.217 127.596 119.794 123.199 119.794H123.2Z" fill="#777777"/>
</g>
<path d="M63.9697 195.535V178.615H67.0657V185.671H75.7297V178.615H78.8257V195.535H75.7297V188.239H67.0657V195.535H63.9697ZM86.9956 195.775C85.9396 195.775 85.0116 195.527 84.2116 195.031C83.4116 194.519 82.7876 193.791 82.3396 192.847C81.8916 191.903 81.6676 190.775 81.6676 189.463C81.6676 188.151 81.8916 187.031 82.3396 186.103C82.7876 185.159 83.4116 184.439 84.2116 183.943C85.0116 183.431 85.9396 183.175 86.9956 183.175C88.0196 183.175 88.9156 183.431 89.6836 183.943C90.4676 184.439 90.9876 185.111 91.2436 185.959H90.9796L91.2436 183.415H94.1236C94.0756 183.911 94.0276 184.415 93.9796 184.927C93.9476 185.439 93.9316 185.943 93.9316 186.439V195.535H90.9556L90.9316 193.039H91.2196C90.9636 193.871 90.4436 194.535 89.6596 195.031C88.8756 195.527 87.9876 195.775 86.9956 195.775ZM87.8356 193.471C88.7796 193.471 89.5396 193.143 90.1156 192.487C90.6916 191.815 90.9796 190.807 90.9796 189.463C90.9796 188.119 90.6916 187.119 90.1156 186.463C89.5396 185.807 88.7796 185.479 87.8356 185.479C86.8916 185.479 86.1316 185.807 85.5556 186.463C84.9796 187.119 84.6916 188.119 84.6916 189.463C84.6916 190.807 84.9716 191.815 85.5316 192.487C86.1076 193.143 86.8756 193.471 87.8356 193.471ZM97.1744 195.535V186.511C97.1744 185.999 97.1584 185.479 97.1264 184.951C97.1104 184.423 97.0704 183.911 97.0064 183.415H99.9104L100.246 186.727H99.7664C99.9264 185.927 100.19 185.263 100.558 184.735C100.942 184.207 101.406 183.815 101.95 183.559C102.494 183.303 103.086 183.175 103.726 183.175C104.014 183.175 104.246 183.191 104.422 183.223C104.598 183.239 104.774 183.279 104.95 183.343L104.926 185.983C104.622 185.855 104.358 185.775 104.134 185.743C103.926 185.711 103.662 185.695 103.342 185.695C102.654 185.695 102.07 185.839 101.59 186.127C101.126 186.415 100.774 186.815 100.534 187.327C100.31 187.839 100.198 188.423 100.198 189.079V195.535H97.1744ZM111.137 195.775C110.081 195.775 109.145 195.527 108.329 195.031C107.529 194.519 106.905 193.791 106.457 192.847C106.009 191.903 105.785 190.775 105.785 189.463C105.785 188.151 106.009 187.031 106.457 186.103C106.905 185.159 107.529 184.439 108.329 183.943C109.145 183.431 110.081 183.175 111.137 183.175C112.145 183.175 113.033 183.423 113.801 183.919C114.585 184.399 115.105 185.055 115.361 185.887H115.049V177.871H118.049V195.535H115.097V192.967H115.385C115.129 193.831 114.609 194.519 113.825 195.031C113.057 195.527 112.161 195.775 111.137 195.775ZM111.977 193.471C112.921 193.471 113.681 193.143 114.257 192.487C114.833 191.815 115.121 190.807 115.121 189.463C115.121 188.119 114.833 187.119 114.257 186.463C113.681 185.807 112.921 185.479 111.977 185.479C111.033 185.479 110.265 185.807 109.673 186.463C109.097 187.119 108.809 188.119 108.809 189.463C108.809 190.807 109.097 191.815 109.673 192.487C110.265 193.143 111.033 193.471 111.977 193.471ZM124.676 195.535L119.948 183.415H123.044L126.452 192.847H125.828L129.284 183.415H131.42L134.852 192.847H134.3L137.684 183.415H140.612L135.884 195.535H133.244L129.62 185.887H130.892L127.34 195.535H124.676ZM146.949 195.775C145.893 195.775 144.965 195.527 144.165 195.031C143.365 194.519 142.741 193.791 142.293 192.847C141.845 191.903 141.621 190.775 141.621 189.463C141.621 188.151 141.845 187.031 142.293 186.103C142.741 185.159 143.365 184.439 144.165 183.943C144.965 183.431 145.893 183.175 146.949 183.175C147.973 183.175 148.869 183.431 149.637 183.943C150.421 184.439 150.941 185.111 151.197 185.959H150.933L151.197 183.415H154.077C154.029 183.911 153.981 184.415 153.933 184.927C153.901 185.439 153.885 185.943 153.885 186.439V195.535H150.909L150.885 193.039H151.173C150.917 193.871 150.397 194.535 149.613 195.031C148.829 195.527 147.941 195.775 146.949 195.775ZM147.789 193.471C148.733 193.471 149.493 193.143 150.069 192.487C150.645 191.815 150.933 190.807 150.933 189.463C150.933 188.119 150.645 187.119 150.069 186.463C149.493 185.807 148.733 185.479 147.789 185.479C146.845 185.479 146.085 185.807 145.509 186.463C144.933 187.119 144.645 188.119 144.645 189.463C144.645 190.807 144.925 191.815 145.485 192.487C146.061 193.143 146.829 193.471 147.789 193.471ZM157.128 195.535V186.511C157.128 185.999 157.112 185.479 157.08 184.951C157.064 184.423 157.024 183.911 156.96 183.415H159.864L160.2 186.727H159.72C159.88 185.927 160.144 185.263 160.512 184.735C160.896 184.207 161.36 183.815 161.904 183.559C162.448 183.303 163.04 183.175 163.68 183.175C163.968 183.175 164.2 183.191 164.376 183.223C164.552 183.239 164.728 183.279 164.904 183.343L164.88 185.983C164.576 185.855 164.312 185.775 164.088 185.743C163.88 185.711 163.616 185.695 163.296 185.695C162.608 185.695 162.024 185.839 161.544 186.127C161.08 186.415 160.728 186.815 160.488 187.327C160.264 187.839 160.152 188.423 160.152 189.079V195.535H157.128ZM172.242 195.775C170.21 195.775 168.618 195.215 167.466 194.095C166.314 192.975 165.738 191.439 165.738 189.487C165.738 188.223 165.986 187.119 166.482 186.175C166.978 185.231 167.666 184.495 168.546 183.967C169.442 183.439 170.482 183.175 171.666 183.175C172.834 183.175 173.81 183.423 174.594 183.919C175.378 184.415 175.97 185.111 176.37 186.007C176.786 186.903 176.994 187.951 176.994 189.151V189.943H168.162V188.359H174.858L174.45 188.695C174.45 187.575 174.21 186.719 173.73 186.127C173.266 185.535 172.586 185.239 171.69 185.239C170.698 185.239 169.93 185.591 169.386 186.295C168.858 186.999 168.594 187.983 168.594 189.247V189.559C168.594 190.871 168.914 191.855 169.554 192.511C170.21 193.151 171.13 193.471 172.314 193.471C173.002 193.471 173.642 193.383 174.234 193.207C174.842 193.015 175.418 192.711 175.962 192.295L176.85 194.311C176.274 194.775 175.586 195.135 174.786 195.391C173.986 195.647 173.138 195.775 172.242 195.775Z" fill="#777777"/>
<defs>
<filter id="filter0_d_690_2203" x="0" y="0" width="244" height="244" filterUnits="userSpaceOnUse" color-interpolation-filters="sRGB">
<feFlood flood-opacity="0" result="BackgroundImageFix"/>
<feColorMatrix in="SourceAlpha" type="matrix" values="0 0 0 0 0 0 0 0 0 0 0 0 0 0 0 0 0 0 127 0" result="hardAlpha"/>
<feOffset dx="4" dy="4"/>
<feComposite in2="hardAlpha" operator="out"/>
<feColorMatrix type="matrix" values="0 0 0 0 0 0 0 0 0 0 0 0 0 0 0 0 0 0 0.25 0"/>
<feBlend mode="normal" in2="BackgroundImageFix" result="effect1_dropShadow_690_2203"/>
<feBlend mode="normal" in="SourceGraphic" in2="effect1_dropShadow_690_2203" result="shape"/>
</filter>
<clipPath id="clip0_690_2203">
<rect width="102.399" height="120" fill="white" transform="translate(72 37)"/>
</clipPath>
</defs>
</svg>
