<svg width="244" height="244" viewBox="0 0 244 244" fill="none" xmlns="http://www.w3.org/2000/svg">
<g filter="url(#filter0_d_690_2294)">
<rect width="240" height="240" fill="#F2F2F2"/>
</g>
<path d="M145.369 117.746H69.2179C64.87 117.746 61.3442 114.359 61.3442 110.182V59.1537C61.3442 54.9769 64.87 51.5898 69.2179 51.5898H128.446C129.151 51.5898 129.622 52.1545 129.622 52.7191C129.622 53.3963 129.034 53.8484 128.446 53.8484H69.2179C66.1626 53.8484 63.8117 56.2195 63.8117 59.0419V110.183C63.8117 113.118 66.2799 115.376 69.2179 115.376H145.369C148.424 115.376 150.775 113.005 150.775 110.183V81.3948C150.775 80.7176 151.363 80.2656 151.95 80.2656C152.655 80.2656 153.126 80.8302 153.126 81.3948L153.125 110.183C153.242 114.36 149.717 117.747 145.369 117.747L145.369 117.746Z" fill="#999999" stroke="#999999" stroke-width="0.7"/>
<path d="M136.777 128.362H80.794C80.4266 128.362 79.9361 128.116 79.8139 127.87C79.5687 127.5 79.5687 127.131 79.6917 126.638L83.9797 115.919C84.2249 115.303 84.9598 114.933 85.5725 115.18C86.1851 115.426 86.5526 116.165 86.3073 116.782L82.7553 125.775L134.938 125.775L131.386 116.781C131.141 116.165 131.509 115.426 132.121 115.179C132.734 114.932 133.469 115.302 133.714 115.918L138.002 126.637C138.124 127.006 138.124 127.5 137.88 127.869C137.634 128.116 137.266 128.362 136.777 128.362H136.777Z" fill="#999999" stroke="#999999" stroke-width="0.7"/>
<path d="M153.192 156.204H64.3784C62.7856 156.204 61.3158 155.341 60.4579 153.986C59.6 152.631 59.6 150.906 60.4579 149.428L68.5432 134.644C68.7884 134.274 69.1559 134.027 69.6455 134.027H148.046C148.536 134.027 148.904 134.274 149.148 134.644L157.234 149.428C157.969 150.906 157.969 152.508 157.234 153.986C156.377 155.341 154.907 156.204 153.192 156.204H153.192ZM70.2584 136.49L62.5415 150.659C62.1741 151.276 62.1741 152.015 62.5415 152.754C62.9089 153.37 63.5216 153.74 64.2565 153.74H153.192C153.927 153.74 154.54 153.37 154.907 152.754C155.275 152.138 155.275 151.398 154.907 150.659L147.189 136.49H70.2584Z" fill="#999999" stroke="#999999" stroke-width="0.7"/>
<path d="M155.844 77.1067H133.794C132.692 77.1067 131.712 76.121 131.712 75.0123V63.308V63.0614C131.834 62.4452 132.202 61.9527 132.692 61.706C133.305 61.4594 134.04 61.4594 134.652 61.9527C135.265 62.4452 135.878 62.5689 136.612 62.5689C137.593 62.5689 138.327 61.8298 138.327 60.8441V58.9963C138.327 58.0106 137.593 57.2715 136.612 57.2715C135.878 57.2715 135.143 57.5182 134.652 58.0106C134.04 58.3802 133.305 58.5031 132.692 58.2573C132.202 58.0106 131.834 57.5182 131.712 56.902V56.7791V56.6562V56.5333V44.9502C131.712 43.8415 132.692 42.8558 133.794 42.8558H145.064C144.452 41.9929 144.084 40.8843 144.084 39.7756C144.084 37.8042 145.677 36.2031 147.636 36.2031H149.474C151.434 36.2031 153.026 37.8051 153.026 39.7756C153.026 40.8843 152.658 41.9929 152.046 42.8558H163.561C163.806 42.8558 164.174 42.8558 164.419 42.9787C165.277 43.2253 165.766 44.0873 165.766 44.9502V56.5317C166.624 55.9155 167.727 55.546 168.829 55.546C170.789 55.546 172.381 57.1479 172.381 59.1185V60.9662C172.381 62.9377 170.788 64.5387 168.829 64.5387C167.727 64.5387 166.624 64.1692 165.766 63.553V74.8879C165.766 75.7508 165.154 76.6128 164.297 76.8594C164.051 76.9823 163.807 76.9823 163.562 76.9823L155.844 77.1067ZM134.162 74.6428H163.317V63.5548C163.317 62.569 163.806 61.707 164.664 61.3375C165.399 60.9679 166.502 61.0908 167.237 61.5841C167.727 61.9537 168.34 62.2003 168.83 62.2003C169.443 62.2003 169.932 61.7079 169.932 61.0917V59.244C169.932 58.6278 169.443 58.1353 168.83 58.1353C168.217 58.1353 167.728 58.382 167.237 58.7515C166.502 59.3677 165.522 59.3677 164.664 58.9982C163.806 58.6286 163.317 57.7658 163.317 56.7809V45.569H152.047C151.067 45.569 150.21 45.0765 149.842 44.2137C149.475 43.3508 149.475 42.3659 150.087 41.6259C150.455 41.1335 150.577 40.6402 150.577 40.024C150.577 39.4078 150.087 38.9153 149.475 38.9153H147.638C147.025 38.9153 146.535 39.4078 146.535 40.024C146.535 40.6402 146.78 41.1326 147.025 41.6259C147.638 42.365 147.638 43.3507 147.27 44.2137C146.903 45.0765 146.045 45.569 145.066 45.569H134.163V55.5484C134.898 55.1789 135.756 55.056 136.613 55.056C138.94 55.056 140.901 56.9037 140.901 59.3686V61.2163C140.901 63.5575 139.064 65.529 136.613 65.529C135.755 65.529 134.898 65.2823 134.163 65.0365L134.162 74.6428Z" fill="#999999" stroke="#999999" stroke-width="0.7"/>
<path d="M91.3437 104.802H89.5065C87.5463 104.802 85.9544 103.2 85.9544 101.229C85.9544 100.121 86.3218 99.012 86.9345 98.1491H75.6644C74.8065 98.1491 73.9495 97.5329 73.7042 96.6709C73.582 96.4243 73.582 96.1785 73.582 95.9318V65.9928C73.582 64.8842 74.5621 63.8984 75.6644 63.8984H87.3018H87.547C88.1597 64.0213 88.6494 64.3909 88.8946 64.8842C89.1398 65.5004 89.1398 66.2395 88.6494 66.8557C88.1597 67.4719 88.0367 68.0881 88.0367 68.8272C88.0367 69.8129 88.7716 70.552 89.7516 70.552H91.5888C92.5689 70.552 93.3038 69.8129 93.3038 68.8272C93.3038 68.0881 93.0585 67.349 92.5689 66.8557C92.2015 66.2395 92.0793 65.5004 92.3237 64.8842C92.5689 64.3917 93.0585 64.0213 93.6712 63.8984H93.7934H93.9156H94.0378H105.675C106.777 63.8984 107.758 64.8842 107.758 65.9928V77.3277C108.615 76.7115 109.718 76.342 110.82 76.342C112.78 76.342 114.372 77.9439 114.372 79.9145V81.7622C114.372 83.7337 112.779 85.3348 110.82 85.3348C109.718 85.3348 108.616 84.9652 107.758 84.349V95.9306C107.758 96.1772 107.758 96.5468 107.635 96.7934C107.39 97.6563 106.533 98.1487 105.675 98.1487H94.1599C94.7725 99.0116 95.14 100.12 95.14 101.229C94.8964 103.2 93.3037 104.802 91.3435 104.802L91.3437 104.802ZM89.0159 99.6265C88.6485 100.119 88.4032 100.735 88.4032 101.228C88.4032 101.845 88.8929 102.337 89.5056 102.337H91.3427C91.9554 102.337 92.445 101.845 92.445 101.228C92.445 100.612 92.1998 100.12 91.8323 99.6265C91.2197 98.8874 91.2197 97.9016 91.5871 97.0387C91.9545 96.1759 92.8125 95.6834 93.7917 95.6834H104.939V84.3485C104.939 83.3627 105.429 82.5008 106.287 82.1312C107.145 81.7617 108.124 81.7617 108.86 82.3779C109.35 82.7474 109.84 82.8703 110.453 82.8703C111.065 82.8703 111.555 82.3779 111.555 81.7617V79.9139C111.555 79.2977 111.065 78.8053 110.453 78.8053C109.84 78.8053 109.35 79.0519 108.86 79.2977C108.125 79.9139 107.145 79.9139 106.287 79.5444C105.429 79.1748 104.939 78.312 104.939 77.3271V66.3618H95.0171C95.3846 67.1009 95.5068 67.9638 95.5068 68.8257C95.5068 71.1668 93.6696 73.1384 91.2188 73.1384H89.3816C87.0539 73.1384 85.0937 71.2906 85.0937 68.8257C85.0937 67.9629 85.3389 67.1009 85.5833 66.3618H75.6609V95.6848H86.6856C87.6657 95.6848 88.5227 96.1772 88.8902 97.0401C89.0124 97.4096 89.1354 97.7792 89.1354 98.1487C89.5062 98.6412 89.261 99.1336 89.0158 99.6261L89.0159 99.6265Z" fill="#999999" stroke="#999999" stroke-width="0.7"/>
<rect x="159.053" y="86.0332" width="17.9175" height="30.1745" rx="1" fill="#F2F2F2" stroke="#999999" stroke-width="2"/>
<path d="M75.1588 200.24C73.7988 200.24 72.5428 200.072 71.3908 199.736C70.2548 199.384 69.2788 198.904 68.4628 198.296L69.4228 195.872C69.9668 196.256 70.5348 196.584 71.1268 196.856C71.7188 197.112 72.3508 197.312 73.0228 197.456C73.6948 197.584 74.4068 197.648 75.1588 197.648C76.4228 197.648 77.3348 197.44 77.8948 197.024C78.4548 196.608 78.7348 196.064 78.7348 195.392C78.7348 194.8 78.5428 194.352 78.1588 194.048C77.7748 193.728 77.0868 193.464 76.0948 193.256L73.3828 192.704C71.8308 192.384 70.6708 191.848 69.9028 191.096C69.1348 190.344 68.7508 189.336 68.7508 188.072C68.7508 187.016 69.0308 186.096 69.5908 185.312C70.1508 184.528 70.9348 183.92 71.9428 183.488C72.9508 183.056 74.1268 182.84 75.4708 182.84C76.6708 182.84 77.7828 183.016 78.8068 183.368C79.8308 183.704 80.6868 184.192 81.3748 184.832L80.4148 187.136C79.7268 186.56 78.9748 186.136 78.1588 185.864C77.3428 185.576 76.4308 185.432 75.4228 185.432C74.2868 185.432 73.3988 185.656 72.7588 186.104C72.1348 186.536 71.8228 187.136 71.8228 187.904C71.8228 188.496 72.0148 188.968 72.3988 189.32C72.7988 189.672 73.4708 189.944 74.4148 190.136L77.1028 190.664C78.7028 190.984 79.8868 191.512 80.6548 192.248C81.4228 192.968 81.8068 193.944 81.8068 195.176C81.8068 196.184 81.5348 197.072 80.9908 197.84C80.4468 198.592 79.6788 199.184 78.6868 199.616C77.6948 200.032 76.5188 200.24 75.1588 200.24ZM89.9556 200.24C88.7076 200.24 87.6276 199.984 86.7156 199.472C85.8036 198.96 85.0916 198.232 84.5796 197.288C84.0836 196.344 83.8356 195.224 83.8356 193.928C83.8356 192.632 84.0836 191.52 84.5796 190.592C85.0916 189.648 85.8036 188.92 86.7156 188.408C87.6276 187.896 88.7076 187.64 89.9556 187.64C91.2036 187.64 92.2836 187.896 93.1956 188.408C94.1236 188.92 94.8356 189.648 95.3316 190.592C95.8436 191.52 96.0996 192.632 96.0996 193.928C96.0996 195.224 95.8436 196.344 95.3316 197.288C94.8356 198.232 94.1236 198.96 93.1956 199.472C92.2836 199.984 91.2036 200.24 89.9556 200.24ZM89.9556 197.936C90.8996 197.936 91.6516 197.608 92.2116 196.952C92.7716 196.28 93.0516 195.272 93.0516 193.928C93.0516 192.584 92.7716 191.584 92.2116 190.928C91.6516 190.272 90.8996 189.944 89.9556 189.944C89.0116 189.944 88.2596 190.272 87.6996 190.928C87.1396 191.584 86.8596 192.584 86.8596 193.928C86.8596 195.272 87.1396 196.28 87.6996 196.952C88.2596 197.608 89.0116 197.936 89.9556 197.936ZM99.3855 200V190.136H97.0575V187.88H100.226L99.3855 188.648V186.8C99.3855 185.296 99.7695 184.16 100.538 183.392C101.322 182.624 102.466 182.24 103.97 182.24C104.322 182.24 104.69 182.264 105.074 182.312C105.474 182.36 105.818 182.448 106.106 182.576V184.928C105.898 184.848 105.65 184.784 105.362 184.736C105.074 184.688 104.794 184.664 104.522 184.664C104.106 184.664 103.73 184.744 103.394 184.904C103.074 185.064 102.818 185.312 102.626 185.648C102.45 185.968 102.362 186.4 102.362 186.944V188.408L101.93 187.88H105.554V190.136H102.386V200H99.3855ZM111.933 200.24C110.493 200.24 109.405 199.864 108.669 199.112C107.933 198.36 107.565 197.232 107.565 195.728V190.136H105.237V187.88H107.565V184.784L110.565 184.016V187.88H113.805V190.136H110.565V195.536C110.565 196.368 110.725 196.952 111.045 197.288C111.365 197.624 111.805 197.792 112.365 197.792C112.669 197.792 112.925 197.768 113.133 197.72C113.357 197.672 113.573 197.608 113.781 197.528V199.904C113.509 200.016 113.205 200.096 112.869 200.144C112.549 200.208 112.237 200.24 111.933 200.24ZM119.39 200L114.662 187.88H117.758L121.166 197.312H120.542L123.998 187.88H126.134L129.566 197.312H129.014L132.398 187.88H135.326L130.598 200H127.958L124.334 190.352H125.606L122.054 200H119.39ZM141.664 200.24C140.608 200.24 139.68 199.992 138.88 199.496C138.08 198.984 137.456 198.256 137.008 197.312C136.56 196.368 136.336 195.24 136.336 193.928C136.336 192.616 136.56 191.496 137.008 190.568C137.456 189.624 138.08 188.904 138.88 188.408C139.68 187.896 140.608 187.64 141.664 187.64C142.688 187.64 143.584 187.896 144.352 188.408C145.136 188.904 145.656 189.576 145.912 190.424H145.648L145.912 187.88H148.792C148.744 188.376 148.696 188.88 148.648 189.392C148.616 189.904 148.6 190.408 148.6 190.904V200H145.624L145.6 197.504H145.888C145.632 198.336 145.112 199 144.328 199.496C143.544 199.992 142.656 200.24 141.664 200.24ZM142.504 197.936C143.448 197.936 144.208 197.608 144.784 196.952C145.36 196.28 145.648 195.272 145.648 193.928C145.648 192.584 145.36 191.584 144.784 190.928C144.208 190.272 143.448 189.944 142.504 189.944C141.56 189.944 140.8 190.272 140.224 190.928C139.648 191.584 139.36 192.584 139.36 193.928C139.36 195.272 139.64 196.28 140.2 196.952C140.776 197.608 141.544 197.936 142.504 197.936ZM151.842 200V190.976C151.842 190.464 151.826 189.944 151.794 189.416C151.778 188.888 151.738 188.376 151.674 187.88H154.578L154.914 191.192H154.434C154.594 190.392 154.858 189.728 155.226 189.2C155.61 188.672 156.074 188.28 156.618 188.024C157.162 187.768 157.754 187.64 158.394 187.64C158.682 187.64 158.914 187.656 159.09 187.688C159.266 187.704 159.442 187.744 159.618 187.808L159.594 190.448C159.29 190.32 159.026 190.24 158.802 190.208C158.594 190.176 158.33 190.16 158.01 190.16C157.322 190.16 156.738 190.304 156.258 190.592C155.794 190.88 155.442 191.28 155.202 191.792C154.978 192.304 154.866 192.888 154.866 193.544V200H151.842ZM166.957 200.24C164.925 200.24 163.333 199.68 162.181 198.56C161.029 197.44 160.453 195.904 160.453 193.952C160.453 192.688 160.701 191.584 161.197 190.64C161.693 189.696 162.381 188.96 163.261 188.432C164.157 187.904 165.197 187.64 166.381 187.64C167.549 187.64 168.525 187.888 169.309 188.384C170.093 188.88 170.685 189.576 171.085 190.472C171.501 191.368 171.709 192.416 171.709 193.616V194.408H162.877V192.824H169.573L169.165 193.16C169.165 192.04 168.925 191.184 168.445 190.592C167.981 190 167.301 189.704 166.405 189.704C165.413 189.704 164.645 190.056 164.101 190.76C163.573 191.464 163.309 192.448 163.309 193.712V194.024C163.309 195.336 163.629 196.32 164.269 196.976C164.925 197.616 165.845 197.936 167.029 197.936C167.717 197.936 168.357 197.848 168.949 197.672C169.557 197.48 170.133 197.176 170.677 196.76L171.565 198.776C170.989 199.24 170.301 199.6 169.501 199.856C168.701 200.112 167.853 200.24 166.957 200.24Z" fill="#999999"/>
<defs>
<filter id="filter0_d_690_2294" x="0" y="0" width="244" height="244" filterUnits="userSpaceOnUse" color-interpolation-filters="sRGB">
<feFlood flood-opacity="0" result="BackgroundImageFix"/>
<feColorMatrix in="SourceAlpha" type="matrix" values="0 0 0 0 0 0 0 0 0 0 0 0 0 0 0 0 0 0 127 0" result="hardAlpha"/>
<feOffset dx="4" dy="4"/>
<feComposite in2="hardAlpha" operator="out"/>
<feColorMatrix type="matrix" values="0 0 0 0 0.6 0 0 0 0 0.6 0 0 0 0 0.6 0 0 0 1 0"/>
<feBlend mode="normal" in2="BackgroundImageFix" result="effect1_dropShadow_690_2294"/>
<feBlend mode="normal" in="SourceGraphic" in2="effect1_dropShadow_690_2294" result="shape"/>
</filter>
</defs>
</svg>
